<?xml version="1.0" standalone="no"?>
<!DOCTYPE svg PUBLIC "-//W3C//DTD SVG 20010904//EN"
 "http://www.w3.org/TR/2001/REC-SVG-20010904/DTD/svg10.dtd">
<svg version="1.0" xmlns="http://www.w3.org/2000/svg"
 width="500.000000pt" height="500.000000pt" viewBox="0 0 500.000000 500.000000"
 preserveAspectRatio="xMidYMid meet">
<metadata>
Created by potrace 1.14, written by Peter Selinger 2001-2017
</metadata>
<g transform="translate(0.000000,500.000000) scale(0.100000,-0.100000)"
fill="#000000" stroke="none">
<path d="M2978 4834 c-2 -1 -39 -5 -83 -9 -161 -13 -200 -17 -270 -29 -16 -2
-52 -7 -80 -11 -80 -9 -213 -34 -300 -57 -44 -11 -84 -21 -90 -22 -72 -14
-285 -109 -285 -127 0 -14 13 -11 84 21 85 39 182 71 259 86 10 2 27 6 37 9
20 6 34 9 100 20 25 4 53 9 62 10 9 2 44 6 77 10 33 3 69 8 81 10 175 34 727
41 870 12 43 -9 139 -41 170 -57 32 -16 194 -172 212 -204 6 -11 -8 -10 -75 5
-109 24 -125 27 -237 44 -135 21 -190 23 -190 7 0 -5 18 -14 39 -21 54 -16
233 -109 344 -179 272 -171 465 -353 651 -616 59 -82 96 -156 131 -261 14 -43
32 -87 39 -97 14 -20 11 -36 -24 -113 -8 -18 -28 -63 -81 -182 -16 -37 -29
-43 -29 -13 0 28 -55 52 -89 39 -30 -12 -33 -9 -64 66 -39 93 -132 249 -196
328 -129 160 -230 261 -386 385 -66 53 -162 131 -213 174 -69 57 -101 78 -122
78 -25 0 -60 -21 -60 -37 0 -3 24 -42 53 -86 140 -213 249 -437 321 -657 33
-102 37 -123 26 -140 -10 -16 -40 -6 -101 36 -38 26 -54 29 -104 20 -29 -6
-31 -3 -60 62 -69 156 -203 386 -285 487 -163 204 -365 344 -497 345 -63 0
-71 -18 -20 -42 72 -34 212 -184 284 -304 33 -55 102 -220 109 -262 3 -15 9
-40 14 -57 10 -36 27 -122 35 -185 8 -56 14 -98 20 -130 3 -14 7 -45 10 -69
25 -210 67 -354 117 -400 l21 -20 24 27 c13 15 33 41 45 59 29 41 67 63 93 53
23 -9 75 17 75 38 0 7 11 24 25 38 40 40 58 84 61 154 2 36 4 66 4 68 0 2 20
-9 45 -24 51 -29 104 -34 139 -11 21 14 27 14 63 -4 22 -11 55 -39 74 -62 52
-65 99 -118 151 -167 47 -45 86 -117 108 -201 15 -55 47 -101 68 -97 9 2 30
41 51 95 33 82 38 90 49 73 7 -11 19 -20 27 -20 31 0 168 215 243 380 136 301
136 302 86 441 -88 245 -253 508 -454 722 -122 131 -462 463 -498 487 -43 29
-110 54 -177 66 -22 3 -49 9 -60 11 -21 5 -463 12 -467 7z"/>
<path d="M1355 4636 c-71 -48 -204 -191 -364 -391 -85 -106 -80 -101 -111
-145 -13 -19 -27 -37 -31 -40 -3 -3 -17 -22 -30 -42 -13 -20 -108 -162 -210
-315 -103 -153 -201 -304 -219 -337 -64 -113 -48 -199 80 -426 21 -36 54 -96
75 -135 171 -314 246 -434 318 -505 21 -22 47 -40 57 -40 10 0 41 -28 69 -63
62 -77 112 -107 174 -107 25 0 48 -4 51 -8 3 -5 8 -31 11 -58 3 -27 17 -101
31 -164 14 -63 27 -122 29 -131 2 -9 13 -49 25 -90 12 -41 23 -78 25 -84 1 -5
6 -19 10 -30 4 -11 21 -56 38 -100 31 -84 144 -322 196 -413 86 -149 235 -339
332 -422 28 -25 64 -55 78 -68 157 -137 495 -293 711 -328 14 -2 34 -6 45 -9
77 -17 291 -24 372 -12 39 6 191 42 222 53 26 9 -2 22 -59 28 -30 3 -109 8
-175 11 -242 11 -352 19 -405 30 -14 3 -41 8 -60 12 -45 9 -38 7 -90 22 -320
88 -602 276 -806 537 -104 132 -255 395 -329 574 -51 124 -123 356 -150 485
-35 167 -35 161 -5 157 20 -2 42 12 95 62 39 36 86 73 105 82 37 18 89 55 129
91 18 16 29 19 42 12 23 -12 52 -12 44 1 -7 11 19 13 180 13 111 0 429 -11
503 -18 113 -11 144 -15 152 -20 5 -3 19 8 31 25 13 16 28 30 34 30 6 0 21
-18 34 -40 40 -72 76 -71 88 3 6 39 -29 105 -73 133 -49 33 -127 10 -140 -41
-5 -19 -13 -25 -33 -26 -14 0 -177 -2 -361 -3 -196 -2 -357 -8 -389 -15 -29
-6 -56 -11 -58 -11 -4 0 94 129 107 140 11 9 86 134 125 205 54 101 143 328
160 410 7 38 17 102 20 140 7 95 15 175 20 205 2 14 6 50 10 80 7 60 16 117
20 140 2 8 4 22 4 30 1 18 97 55 151 59 23 1 27 26 6 34 -7 3 -43 -5 -80 -19
-53 -19 -66 -21 -66 -9 0 15 34 38 43 29 3 -3 34 21 68 54 85 79 100 86 141
69 18 -8 45 -26 60 -41 42 -43 126 -169 168 -253 66 -132 75 -189 85 -528 3
-88 7 -171 10 -185 3 -14 8 -43 11 -65 25 -177 147 -377 288 -474 50 -35 123
-64 137 -55 11 7 -36 100 -65 128 -12 11 -44 41 -72 66 -100 91 -164 207 -188
345 -3 17 -8 41 -11 55 -6 31 -13 130 -20 285 -12 290 -40 385 -173 581 -122
181 -213 241 -299 195 -29 -15 -143 -138 -143 -153 0 -5 -11 -8 -24 -8 -29 0
-38 -22 -65 -162 -14 -66 -19 -83 -21 -58 -4 69 -7 117 -14 260 -7 156 -16
185 -62 196 -50 13 -99 -12 -154 -79 -29 -34 -59 -71 -68 -82 -18 -21 -159
-209 -202 -269 -28 -38 -34 -38 -36 2 -2 38 -2 38 -26 49 -31 13 -114 -6 -159
-37 -49 -34 -128 -98 -171 -138 -34 -33 -37 -33 -31 -11 11 50 105 228 162
309 70 97 98 147 105 182 12 69 -55 67 -153 -4 -132 -98 -308 -283 -414 -435
-36 -51 -106 -182 -111 -206 -2 -7 -8 -24 -14 -38 -10 -26 -17 -61 -31 -154
-9 -67 -6 -132 15 -255 11 -66 56 -191 94 -261 22 -38 42 -80 46 -92 16 -54
-52 58 -236 383 -99 177 -140 260 -147 304 -7 42 25 103 149 291 108 163 229
349 243 373 6 10 46 69 90 131 44 63 87 123 95 135 20 29 223 277 283 346 68
77 124 120 159 120 34 0 115 -39 142 -69 32 -35 41 -25 21 23 -4 10 -35 36
-68 57 -81 52 -131 53 -202 5z"/>
<path d="M2218 3692 c-32 -8 -55 -18 -52 -24 10 -16 153 10 179 33 13 13 -60
8 -127 -9z"/>
<path d="M3706 2928 c9 -31 6 -111 -6 -143 -12 -33 -57 -52 -140 -60 -89 -9
-114 -13 -164 -30 -117 -40 -137 -56 -157 -128 -10 -37 -11 -38 -29 -22 -10 9
-26 32 -35 51 -21 45 -40 34 -20 -11 20 -49 74 -125 88 -125 7 0 26 26 42 57
29 56 31 58 100 79 39 11 102 22 140 23 39 1 90 7 115 12 25 6 52 12 60 14 8
2 35 11 59 19 35 13 46 14 52 4 14 -22 21 -107 14 -166 -5 -50 -4 -60 15 -80
12 -12 25 -20 30 -17 5 3 24 33 42 66 29 53 34 57 40 37 3 -13 6 -36 7 -51 1
-36 28 -94 47 -101 9 -4 19 6 28 27 11 24 15 27 15 12 1 -15 3 -17 10 -6 13
20 17 -57 15 -264 -3 -199 -11 -309 -30 -400 -18 -81 -26 -124 -31 -149 -8
-50 -91 -293 -124 -363 -93 -203 -177 -354 -275 -493 -66 -95 -117 -187 -110
-199 10 -15 74 10 115 46 93 79 268 411 367 697 36 102 78 254 88 319 3 20 8
52 11 70 30 186 39 466 21 647 -11 105 -11 186 -1 225 7 28 7 29 -8 10 -8 -11
-21 -20 -29 -20 -8 0 -12 -10 -10 -27 1 -15 -2 -29 -8 -33 -6 -4 -10 4 -10 19
0 31 2 22 -16 98 -19 82 -37 108 -71 106 -18 -2 -33 -13 -46 -35 -10 -18 -20
-33 -22 -33 -5 0 -50 145 -47 153 1 4 -2 7 -6 7 -5 0 -17 19 -27 43 -30 69
-76 137 -92 137 -10 0 -12 -6 -7 -22z m49 -98 c20 -38 19 -47 -5 -53 -17 -4
-19 0 -18 39 0 24 2 44 4 44 2 0 10 -13 19 -30z"/>
<path d="M4385 2653 c-136 -26 -236 -109 -220 -183 8 -35 25 -32 18 3 -9 48
97 122 187 130 55 5 136 -20 185 -57 54 -41 121 -132 144 -195 26 -70 34 -117
34 -206 0 -186 -50 -345 -161 -515 -77 -118 -255 -270 -316 -270 -32 0 -66
-23 -66 -46 0 -32 30 -79 61 -98 53 -31 158 20 260 127 86 90 211 290 224 358
2 11 8 26 13 33 13 17 40 111 57 196 21 107 14 305 -14 385 -30 88 -65 147
-129 214 -62 64 -134 107 -197 116 -22 3 -44 7 -50 9 -5 1 -19 1 -30 -1z"/>
<path d="M3025 2578 c16 -74 110 -214 138 -205 19 6 21 57 3 57 -22 0 -89 88
-105 138 -17 51 -46 59 -36 10z"/>
<path d="M4342 2354 c-85 -42 -151 -132 -125 -172 6 -10 6 -34 0 -67 -12 -67
-6 -91 38 -139 19 -22 35 -49 35 -60 0 -12 -20 -46 -45 -76 -69 -83 -75 -124
-30 -198 13 -22 26 -32 37 -29 9 3 26 -1 37 -9 16 -11 30 -12 70 -3 45 9 52
15 70 53 41 83 15 169 -53 182 l-36 6 6 52 6 51 -60 56 c-58 54 -59 56 -57
105 1 27 4 63 7 79 3 17 3 24 1 18 -3 -7 -8 -13 -13 -13 -16 0 2 34 39 74 44
47 114 79 153 71 39 -9 76 -57 84 -110 3 -25 14 -55 24 -67 l17 -22 13 24 c17
32 7 89 -24 138 -49 78 -113 97 -194 56z"/>
<path d="M3646 2305 c-26 -62 -83 -136 -111 -144 -16 -5 -38 -12 -47 -16 -13
-5 -18 -2 -18 8 0 16 -20 27 -51 27 -11 0 -34 7 -51 16 -19 10 -34 12 -40 6
-13 -13 9 -47 39 -63 25 -13 30 -29 11 -29 -7 0 -22 -7 -32 -15 -33 -25 -7
-39 45 -25 24 7 53 14 64 16 11 1 27 5 35 7 117 29 343 43 396 23 17 -6 23 -2
33 21 21 52 21 72 0 84 -11 5 -27 8 -37 5 -27 -8 -72 -15 -72 -11 0 2 9 20 21
39 16 27 18 36 7 36 -25 0 -148 -71 -148 -86 0 -8 -6 -14 -14 -14 -8 0 -21 -3
-29 -6 -17 -6 -17 5 2 50 7 17 10 44 9 60 -4 27 -5 28 -12 11z"/>
<path d="M3119 2287 c-8 -7 -23 -18 -33 -24 -22 -12 -29 -56 -29 -188 -1 -78
10 -181 19 -197 3 -4 7 -18 9 -30 9 -48 48 -129 67 -139 26 -14 33 -7 51 53
16 52 17 184 2 248 -15 63 -25 126 -30 183 -3 34 -9 64 -13 67 -4 3 -7 11 -7
19 0 20 -20 25 -36 8z"/>
<path d="M752 2139 c-259 -66 -480 -313 -547 -612 -40 -178 -18 -336 68 -501
98 -189 333 -366 537 -405 88 -16 254 -7 330 19 198 67 406 244 416 353 4 53
-95 39 -142 -20 -73 -93 -188 -177 -308 -225 -72 -28 -237 -33 -326 -9 -233
63 -412 226 -491 447 -28 77 -35 249 -14 347 65 304 335 569 592 583 102 5
196 -27 331 -114 12 -8 22 -12 22 -9 0 11 -156 114 -197 130 -90 35 -176 40
-271 16z"/>
<path d="M2300 2060 c-31 -42 -64 -75 -75 -76 -81 -12 -167 3 -225 39 -68 42
-84 20 -25 -37 l34 -34 -28 -5 c-15 -3 -44 0 -65 7 -21 7 -69 14 -107 15 -59
2 -68 0 -63 -14 4 -8 25 -20 49 -26 35 -9 42 -14 38 -30 -6 -23 -6 -23 82 -3
39 8 99 17 135 19 36 1 74 6 84 11 30 12 455 10 498 -3 42 -13 54 -5 62 39 4
22 0 28 -24 37 -16 5 -59 9 -95 7 -36 -1 -65 1 -65 6 0 4 11 19 25 34 45 49
25 61 -30 18 -52 -39 -106 -64 -147 -69 -44 -5 -46 1 -17 56 11 22 19 50 17
61 -2 16 -15 5 -58 -52z"/>
<path d="M3569 2101 c-42 -13 -69 -31 -69 -46 0 -23 33 -73 55 -83 51 -24 118
30 118 96 0 39 -40 52 -104 33z"/>
<path d="M2339 1905 c-3 -2 -21 -6 -39 -9 -19 -2 -42 -7 -50 -10 -22 -9 -23
-52 -4 -82 27 -40 45 -45 104 -26 43 14 56 23 67 49 17 43 17 69 -3 77 -18 7
-69 8 -75 1z"/>
<path d="M3610 1882 c0 -15 22 -76 33 -90 21 -27 26 11 6 49 -19 37 -39 59
-39 41z"/>
<path d="M3660 1881 c0 -14 61 -62 71 -55 20 12 7 34 -27 49 -43 18 -44 18
-44 6z"/>
<path d="M940 1810 c-71 -13 -160 -75 -204 -142 -13 -20 -15 -31 -7 -45 10
-17 10 -16 11 3 0 29 80 100 146 131 86 39 145 18 234 -83 67 -77 66 -121 -5
-150 -59 -25 -60 -53 -5 -104 l40 -37 -29 -1 c-89 -2 -224 -126 -247 -227 -13
-54 -8 -76 24 -114 32 -38 76 -46 137 -26 48 17 130 102 140 145 4 17 17 43
29 58 76 91 78 159 7 226 l-31 29 20 32 c28 46 25 93 -9 146 -69 110 -170 174
-251 159z"/>
<path d="M2298 1671 c-13 -32 -14 -43 -4 -57 17 -22 25 -8 33 51 6 56 -9 59
-29 6z"/>
<path d="M2364 1696 c-7 -19 14 -86 27 -86 17 0 22 30 9 60 -15 37 -28 46 -36
26z"/>
<path d="M3218 1235 c-2 -3 -13 -6 -24 -8 -58 -11 -120 -34 -209 -79 -115 -58
-245 -145 -245 -164 0 -7 10 -20 21 -28 20 -13 28 -13 83 9 64 25 299 118 352
141 43 17 61 67 34 94 -18 18 -18 19 3 22 18 3 19 4 5 10 -9 4 -18 5 -20 3z
m-108 -65 c-19 -11 -39 -19 -45 -19 -5 0 6 8 25 19 19 11 40 19 45 19 6 0 -6
-8 -25 -19z"/>
<path d="M3434 461 c-18 -11 -35 -24 -38 -30 -9 -14 19 -67 38 -74 19 -8 79
75 74 101 -5 24 -38 26 -74 3z"/>
<path d="M3363 328 c-36 -17 -41 -58 -8 -58 14 0 55 46 55 61 0 12 -20 10 -47
-3z"/>
</g>
</svg>
